<?xml version="1.0" standalone="no"?>
<!DOCTYPE svg PUBLIC "-//W3C//DTD SVG 20010904//EN"
 "http://www.w3.org/TR/2001/REC-SVG-20010904/DTD/svg10.dtd">
<svg version="1.0" xmlns="http://www.w3.org/2000/svg"
 width="304.000000pt" height="304.000000pt" viewBox="0 0 304.000000 304.000000"
 preserveAspectRatio="xMidYMid meet">
<metadata>
Created by potrace 1.14, written by Peter Selinger 2001-2017
</metadata>
<g transform="translate(0.000000,304.000000) scale(0.100000,-0.100000)"
fill="#000000" stroke="none">
<path d="M2087 3034 c-1 -1 -25 -5 -53 -8 -50 -5 -137 -36 -266 -95 -90 -41
-351 -215 -452 -301 -259 -219 -415 -407 -532 -641 -111 -222 -75 -410 96
-497 36 -18 90 -37 120 -43 86 -17 311 -13 413 7 15 3 27 2 26 -3 0 -4 -30
-33 -66 -63 -104 -86 -422 -406 -492 -495 -239 -301 -310 -583 -188 -752 128
-179 458 -185 882 -16 175 69 465 218 495 254 3 3 42 32 88 63 46 32 81 60 79
62 -2 2 -55 -20 -118 -50 -70 -34 -145 -61 -194 -71 -44 -9 -89 -18 -100 -21
-11 -2 -35 -7 -54 -10 -18 -3 -93 -23 -165 -44 -376 -109 -502 -131 -589 -106
-77 22 -113 60 -124 127 -8 52 43 214 88 282 48 71 127 174 178 232 54 61 346
351 436 434 214 195 239 229 239 317 -1 102 -56 140 -189 131 -44 -4 -134 -15
-200 -27 -165 -28 -321 -36 -380 -20 -65 18 -97 58 -89 113 3 23 15 60 27 82
11 22 27 54 35 70 60 117 194 289 324 418 182 178 398 317 626 403 73 28 114
30 133 8 15 -18 19 -127 6 -185 -7 -35 -5 -38 48 -83 l55 -47 32 22 c68 47
100 103 122 212 29 139 -46 280 -172 321 -43 15 -118 27 -125 20z"/>
</g>
</svg>
