<?xml version="1.0" encoding="UTF-8"?>
<svg id="Layer_2" data-name="Layer 2" xmlns="http://www.w3.org/2000/svg" viewBox="0 0 575.30233 108.5">
  <defs>
    <style>
      .cls-1 {
        fill: #fff;
      }
    </style>
  </defs>
  <g id="Layer_1-2" data-name="Layer 1">
    <g>
      <path d="m.83986,0h574.46247v107.66538c-.59478-.0042-1.18951-.0121-1.78429-.0121-190.38418-.0006-380.76838-.00066-571.15257-.00073-.47732,0-.95464.00001-1.51324.00001,0-.53434,0-.94453,0-1.35472.00016-34.56363.00041-69.12726-.00007-103.69089-.00001-.86899-.00803-1.73798-.01231-2.60697Zm488.95018,95.06308c9.44619.29034,17.17863-1.68804,24.18132-6.24736,5.39659-3.51359,9.61248-8.09622,12.58243-13.82565,2.25384-4.34798,3.21774-8.95985,3.5797-13.80374.60354-8.07636-1.32161-15.44113-5.95953-22.0491-5.95569-8.4854-14.2909-13.27196-24.47423-14.95227-4.26341-.7035-8.55718-.69471-12.86298-.20594-5.54611.62956-10.66579,2.48934-15.45411,5.23418-3.19473,1.83134-5.88156,4.32315-8.40283,7.00667-4.74219,5.04731-7.39632,11.11643-8.55892,17.78863-.71596,4.10869-.47503,8.30184.35913,12.44363,2.22016,11.02384,8.47172,19.02115,18.40341,24.19466,5.5191,2.87498,11.41615,4.49679,16.60661,4.4163Zm-322.54815.10735c1.07695-.08576,3.1363-.19751,5.18311-.42203,7.67756-.84217,14.46905-3.69023,20.38833-8.69086,5.49235-4.63998,9.25399-10.33704,11.31681-17.17316,1.10814-3.67234,1.27823-7.43713,1.23969-11.24494-.05835-5.76485-1.56394-11.12091-4.44844-16.07988-3.53878-6.08381-8.49246-10.77802-14.86159-13.81134-6.70337-3.19249-13.8375-4.45608-21.28643-4.01205-10.10905.6026-18.77301,4.36351-25.80141,11.6234-7.48309,7.72958-10.45424,17.0798-9.59268,27.67547.46208,5.68282,2.44222,10.90642,5.49812,15.68933,3.29417,5.15585,7.80968,8.97417,13.2777,11.80873,5.70152,2.95562,11.69985,4.48647,19.08679,4.63733ZM102.70846,25.71574c.00479.11036.00959.22073.01437.33109.43083.34781.86877.6873,1.29123,1.04488,1.71855,1.45464,3.13926,3.14224,3.41642,5.44179.29685,2.46292.56133,4.9477.56989,7.42386.04134,11.95968-.00637,23.91967-.03704,35.87951-.00073.28426-.17157.56808-.26307.85211-.29862-.12753-.61665-.22433-.88866-.39399-.16639-.10377-.26352-.31839-.38938-.485-1.41651-1.87504-2.80208-3.77419-4.25754-5.61887-1.38006-1.74911-2.85249-3.42591-4.25077-5.1612-5.24583-6.51021-10.49015-13.0217-15.71105-19.55165-3.71937-4.65193-7.42419-9.31582-11.0847-14.01347-1.18743-1.52386-2.21904-3.16811-3.31194-4.76404-.5467-.79833-1.21711-1.29416-2.2623-1.22009-1.15036.08151-2.30697.09531-3.46107.10163-2.97136.01628-5.94285.00828-8.91424.02126-.35209.00154-.70387.07318-1.3329.14315.84635.70972,1.48394,1.1872,2.05482,1.73352,1.90831,1.82619,3.16621,4.01991,3.19165,6.68909.0812,8.51743.10442,17.03564.10474,25.55354.00031,8.30974-.02576,16.61981-.12117,24.92882-.01268,1.10437-.35675,2.26547-.80205,3.29109-.78523,1.80856-2.01638,3.32245-3.67593,4.46205-.33891.23272-.60265.57352-1.02064.98114h19.03052c-.79613-.65626-1.34679-1.12034-1.90834-1.57103-1.29733-1.04124-2.54101-2.18807-2.91795-3.84305-.48327-2.12188-1.02823-4.29278-1.04484-6.44637-.09711-12.58642-.04781-25.17395-.0461-37.76111.00005-.38202-.03538-.77634.04682-1.14252.07805-.34774.28894-.66603.44143-.99727.34424.18657.78723.29305,1.01682.5726,1.58811,1.93368,3.13413,3.90159,4.68924,5.86198,2.90107,3.65711,5.79893,7.31673,8.69848,10.97503,5.01983,6.33343,10.01887,12.68329,15.0676,18.99389,3.17683,3.97084,6.31915,7.97764,9.67927,11.79231,2.92377,3.31928,6.65909,5.53828,10.99353,6.79654,0-1.0746-.00018-2.09749.00003-3.12038.00346-17.62855-.02041-35.2572.03879-52.88556.0093-2.76816.3309-5.54193.62768-8.3004.24631-2.28922,1.75803-3.86889,3.40592-5.31559.39546-.34717.82554-.65537,1.2397-.98149-.02769-.09355-.05539-.1871-.08308-.28066-.46232-.07828-.92413-.22123-1.38707-.22491-5.00052-.03981-10.00122-.06579-15.00187-.06868-.4817-.00028-.96351.18-1.44527.27646Zm227.58697,54.07588l-.45543-.19987c-.39804.26299-.81395.50295-1.19138.79247-4.64754,3.56521-9.93353,5.44438-15.77296,5.2821-4.70772-.13083-9.40154-.74616-14.10265-1.13291-.6556-.05395-.92867-.41249-.96657-1.00652-.03099-.48526-.0436-.97247-.04332-1.45881.00374-6.7453.03204-13.49072-.00513-20.23578-.00548-.99808.28168-1.39991,1.29-1.37973,3.14621.06296,6.30157-.03842,9.43704.16846,2.12166.13999,4.21274.69036,5.67234,2.49807.15076.18669.42898.27169.76145.47229v-11.3948c-.57758.06493-1.06.15845-1.54398.16747-4.85965.09066-9.71982.15594-14.57914.2595-.80887.01724-.91867-.42628-.92213-1.04209-.03114-5.56216-.08058-11.12437-.05751-16.68629.00151-.36042.49426-.82459.87341-1.04734.36436-.21404.87702-.23308,1.32632-.24143,3.774-.07022,7.54887-.18022,11.32257-.15328,3.00404.02144,5.66084,1.08252,7.96073,3.03679.43692.37124,1.03716.55267,1.5622.82175v-11.95407c-1.50599,0-2.8949.00163-4.28384-.00026-10.77549-.01462-21.551-.03366-32.32649-.03444-.56582-.00004-1.13161.1532-2.0023.2792.51038.58764.74692,1.06327,1.12966,1.26522,1.60182.8452,2.39337,2.33419,2.71949,3.90647.49105,2.36751.84401,4.80925.85606,7.22139.07069,14.186.04011,28.3726.00182,42.55889-.00513,1.90282-.17231,3.81367-.3963,5.70538-.30023,2.53534-1.20655,4.77157-3.55673,6.18434-.30354.18247-.45517.61456-.75551,1.04273,1.03565,0,1.85636,0,2.67705,0,12.91106-.00014,25.82213.00026,38.73319-.00188.69858-.00011,1.56064.22062,2.04772-.10415.44784-.2986.49077-1.1955.71422-1.82808.93707-2.65272,1.9006-5.29658,2.80112-7.96149.42088-1.24556.72042-2.5316,1.07497-3.79929Zm-85.90759-.02352c-.25261-.48083-.42475-.73392-.52609-1.01243-1.61392-4.43556-3.20009-8.88116-4.83044-13.31071-2.06033-5.5978-4.17015-11.17761-6.22768-16.77642-.88292-2.40263-1.65606-4.84507-2.53685-7.24851-.95532-2.60669-2.06638-5.15989-2.94411-7.7909-.74372-2.22925-1.41641-4.50869-1.80664-6.8183-.26538-1.57089-.1017-1.37435-1.50497-1.38681-4.19695-.03727-8.39417-.05307-12.59125-.04818-.43155.0005-.86287.19636-1.47617.34592.4747.55956.73844.92795,1.05874,1.23879,2.30402,2.23596,3.74997,4.99936,4.85162,7.94505,2.76124,7.38316,5.46451,14.78772,8.20025,22.18032,3.18179,8.59787,6.33633,17.20599,9.57932,25.78104,1.2554,3.31942,2.63716,6.61646,5.59494,8.89781.99372.76643,2.00353,1.51699,3.0483,2.21197,1.18876.79076,2.41441,1.52874,3.64585,2.25301.4471.26295.89991.36514,1.16257-.32769,1.6241-4.28436,3.26906-8.56093,4.91007-12.83896,4.39967-11.4697,8.78588-22.94454,13.20743-34.40593,2.40021-6.2217,4.87183-12.41616,7.28593-18.63261.43843-1.129.78544-2.29627,1.116-3.46231.23016-.81182-.0579-1.20225-1.00192-1.1899-3.63739.0476-7.27571.03555-10.91366.03304-.80277-.00055-1.60739-.09995-2.40764-.06769-.71417.02878-.8253.44124-.40596.97302.16824.21337.42365.35876.63889.53565,1.70622,1.40203,2.70952,3.18744,2.31207,5.39027-.43587,2.41558-.9717,4.84365-1.78347,7.15549-1.58665,4.5186-3.40318,8.95725-5.11055,13.43426-2.53639,6.65066-5.06395,13.30465-7.58799,19.95996-.72567,1.91344-1.41126,3.84201-2.1507,5.75005-.14986.3867-.45945.71227-.8059,1.23169Zm143.77563.57377c-.12659-.13263-.2532-.26526-.37979-.39789-.58837.26579-1.23157.45213-1.7564.80995-4.17302,2.84519-8.66974,4.87931-13.81359,4.82924-4.68024-.04557-9.35856-.37249-14.03568-.61407-2.41869-.12493-2.38881-.16281-2.38383-2.49829.01948-9.14289-.01417-18.28601.03832-27.42868.03988-6.94901.14932-13.89807.29009-20.84586.06154-3.03553.6127-5.90563,3.55268-7.67185.22821-.1371.42752-.63076.35103-.86571-.06595-.20254-.54408-.3818-.84081-.38312-1.88791-.00844-3.77598.04809-5.66414.05914-3.63726.02127-7.27478.01522-10.91189.05068-.54547.00532-1.08932.174-1.63391.2671.31405.50041.60957,1.01353.94648,1.49825.51051.73448,1.17057,1.39132,1.55469,2.18293,1.27627,2.62989,1.44222,5.48887,1.44545,8.33961.01607,14.28827-.00151,28.5766-.02127,42.86489-.0021,1.52769-.01274,3.06337-.16368,4.58117-.30023,3.01868-1.04018,5.8394-4.02564,7.45587-.25505.1381-.39914.47859-.74256.91126,1.16703,0,2.05961.00001,2.95219,0,7.24154-.00012,14.48305-.00029,21.7246-.00035,5.91217-.00005,11.82451-.02222,17.73632.0238.89381.00696,1.26847-.302,1.40765-1.11149.10544-.61304.19484-1.24647.42508-1.81758,1.01081-2.50707,2.09298-4.98577,3.09974-7.49439.3556-.88608.56999-1.82813.84888-2.74462Zm57.87863-.06787l-.33002-.34223c-.59703.27877-1.25348.47476-1.78183.84921-4.85953,3.44388-10.21813,5.21808-16.22254,4.87662-4.0819-.23212-8.16244-.48791-12.24447-.71796-1.75202-.09874-1.76394-.09408-1.76317-1.89714.00623-14.91571-.01635-29.83154.04626-44.74702.0103-2.45568.18869-4.95105.67718-7.3501.32312-1.58684.9654-3.26617,2.72761-4.09427.40086-.18836.63868-.71941.95153-1.09274-.04575-.09743-.09147-.19486-.13723-.2923-1.02773-.06664-2.05515-.18554-3.08319-.19107-4.96489-.02669-9.92997-.02963-14.89488-.01524-.34422.001-.68784.21145-1.03173.32451.16421.42894.25095.91159.50725,1.27672.76771,1.09383,1.97231,2.03309,2.32806,3.23153.62479,2.10485,1.02065,4.35588,1.03301,6.54834.07838,13.94194.02512,27.88461.01651,41.82704-.00115,1.8773.06602,3.75691-.00556,5.63141-.13371,3.50035-.99951,6.67372-4.28535,8.65423-.19602.11814-.30795.37405-.5935.73656.6605,0,1.07327-.00026,1.48605.00003,13.64494.00953,27.28991.01594,40.93485.03994.56438.00099.88451-.12721,1.09913-.69049,1.38471-3.63378,2.81535-7.25028,4.20134-10.88356.20228-.53026.24703-1.11986.36467-1.682Z"/>
      <path class="cls-1" d="m.83986,0c.00428.86899.0123,1.73798.01231,2.60697.00048,34.56363.00022,69.12726.00007,103.69089,0,.41018,0,.82037,0,1.35472.5586,0,1.03592-.00001,1.51324-.00001,190.38419.00006,380.76839.00013,571.15257.00073.59478,0,1.18951.0079,1.78429.0121v.83462H0C0,72.33333,0,36.16667,0,0c.27995,0,.5599,0,.83986,0Z"/>
      <path class="cls-1" d="m489.79004,95.06308c-5.19047.08049-11.08751-1.54132-16.60661-4.4163-9.93168-5.17352-16.18325-13.17082-18.40341-24.19466-.83417-4.14179-1.07509-8.33494-.35913-12.44363,1.1626-6.6722,3.81673-12.74132,8.55892-17.78863,2.52126-2.68352,5.2081-5.17533,8.40283-7.00667,4.78833-2.74484,9.908-4.60462,15.45411-5.23418,4.30581-.48877,8.59957-.49755,12.86298.20594,10.18332,1.68032,18.51854,6.46687,24.47423,14.95227,4.63793,6.60798,6.56308,13.97275,5.95953,22.0491-.36195,4.84389-1.32586,9.45575-3.5797,13.80374-2.96995,5.72944-7.18585,10.31206-12.58243,13.82565-7.00269,4.55932-14.73513,6.5377-24.18132,6.24736Zm-23.6009-36.61555c.10452.00861.20899.01722.31351.02582-.29342,4.49785,1.104,8.67417,2.81084,12.67248,1.6262,3.80937,4.16689,7.0965,7.33917,9.88748,3.84415,3.38207,8.30866,5.33748,13.34237,5.93997,3.75906.44993,7.42816.00963,11.0767-1.25595,2.34805-.81449,4.5188-1.82801,6.43836-3.30179,4.05084-3.11009,7.26151-6.82657,8.69373-11.91098.82099-2.91432,1.64501-5.79926,1.75702-8.83089.14522-3.93048-.58755-7.74303-1.86128-11.44091-1.9659-5.70742-5.0577-10.63943-10.16236-14.14147-3.21616-2.20639-6.68211-3.70264-10.61453-4.09951-2.94627-.29734-5.88192-.27425-8.76401.32759-1.98918.41537-3.97056,1.01917-5.83692,1.81372-1.41382.60188-2.69135,1.5699-3.94032,2.49409-2.90331,2.1485-5.30114,4.74788-6.96009,7.98791-1.18812,2.32046-2.24594,4.65196-2.53111,7.30089-.2359,2.19112-.72447,4.35539-1.10108,6.53156Z"/>
      <path class="cls-1" d="m167.24189,95.17043c-7.38694-.15086-13.38527-1.68172-19.08679-4.63733-5.46802-2.83457-9.98352-6.65289-13.2777-11.80873-3.0559-4.78291-5.03604-10.0065-5.49812-15.68933-.86155-10.59567,2.10959-19.94589,9.59268-27.67547,7.0284-7.25989,15.69236-11.02081,25.80141-11.6234,7.44893-.44403,14.58306.81955,21.28643,4.01205,6.36913,3.03332,11.32281,7.72753,14.86159,13.81134,2.8845,4.95898,4.39009,10.31504,4.44844,16.07988.03854,3.80781-.13155,7.5726-1.23969,11.24494-2.06283,6.83613-5.82446,12.53319-11.31681,17.17316-5.91928,5.00062-12.71076,7.84868-20.38833,8.69086-2.04681.22452-4.10616.33627-5.18311.42203Zm25.78886-33.75638c-.05976-5.66396-.91858-9.72362-3.11838-14.93164-.41097-.97299-.86662-1.96041-1.48887-2.80493-1.10993-1.50634-2.29888-2.96681-3.56787-4.34351-3.42721-3.71811-7.66683-6.17989-12.62209-7.1272-2.39901-.45863-4.93629-.2121-7.41139-.26612-3.14977-.06875-6.01419,1.06261-8.83088,2.24141-3.44497,1.44174-6.21904,3.80846-8.52257,6.71044-2.02885,2.55597-3.3532,5.44546-4.4508,8.52525-.99264,2.78527-1.41341,5.62667-1.39155,8.46881.06543,8.50382,3.00568,15.91366,9.07282,22.04955,3.51088,3.55066,7.71199,5.82872,12.55502,6.79701,4.32846.8654,8.61492.47493,12.86169-.95277,2.89694-.9739,5.52707-2.25557,7.82019-4.24714,4.13721-3.59318,6.8624-7.97564,8.16403-13.34144.58988-2.43173.9047-4.82539.93067-6.7777Z"/>
      <path class="cls-1" d="m102.70846,25.71574c.48176-.09646.96357-.27673,1.44527-.27646,5.00065.00289,10.00135.02887,15.00187.06868.46294.00368.92475.14663,1.38707.22491.02769.09355.05539.1871.08308.28066-.41416.32612-.84424.63432-1.2397.98149-1.64789,1.44669-3.15961,3.02637-3.40592,5.31559-.29677,2.75847-.61837,5.53225-.62768,8.3004-.05921,17.62837-.03533,35.25701-.03879,52.88556-.00021,1.02289-.00003,2.04579-.00003,3.12038-4.33444-1.25826-8.06976-3.47726-10.99353-6.79654-3.36012-3.81467-6.50244-7.82148-9.67927-11.79231-5.04873-6.31059-10.04777-12.66046-15.0676-18.99389-2.89955-3.6583-5.79741-7.31792-8.69848-10.97503-1.55511-1.96038-3.10113-3.92829-4.68924-5.86198-.2296-.27956-.67259-.38603-1.01683-.57261-.15248.33124-.36337.64953-.44142.99727-.0822.36618-.04677.7605-.04682,1.14252-.0017,12.58716-.05101,25.17469.0461,37.76111.01661,2.1536.56157,4.32449,1.04484,6.44637.37693,1.65498,1.62062,2.80181,2.91795,3.84305.56155.45069,1.11222.91476,1.90834,1.57103h-19.03052c.41799-.40762.68173-.74842,1.02064-.98114,1.65955-1.1396,2.8907-2.65349,3.67593-4.46205.4453-1.02562.78937-2.18673.80205-3.29109.0954-8.30901.12148-16.61908.12117-24.92882-.00032-8.5179-.02354-17.03611-.10474-25.55354-.02544-2.66918-1.28334-4.8629-3.19165-6.68909-.57088-.54632-1.20846-1.0238-2.05482-1.73352.62903-.06997.98081-.14161,1.3329-.14315,2.97139-.01298,5.94288-.00498,8.91424-.02126,1.15409-.00632,2.31071-.02012,3.46107-.10163,1.0452-.07406,1.7156.42177,2.2623,1.22009,1.0929,1.59593,2.12451,3.24018,3.31194,4.76404,3.66051,4.69765,7.36533,9.36154,11.0847,14.01347,5.2209,6.52995,10.46522,13.04144,15.71105,19.55165,1.39827,1.73529,2.87071,3.41209,4.25077,5.1612,1.45546,1.84468,2.84103,3.74382,4.25754,5.61887.12586.16661.22299.38123.38938.485.27201.16966.59004.26646.88866.39399.0915-.28403.26234-.56784.26307-.85211.03067-11.95984.07838-23.91983.03704-35.87951-.00856-2.47616-.27304-4.96094-.56989-7.42386-.27716-2.29955-1.69787-3.98716-3.41642-5.44179-.42245-.35758-.8604-.69707-1.29123-1.04488-.00479-.11036-.00958-.22073-.01437-.33109Z"/>
      <path class="cls-1" d="m330.29543,79.79162c-.35455,1.2677-.65409,2.55374-1.07497,3.79929-.90052,2.66491-1.86405,5.30877-2.80112,7.96149-.22345.63258-.26638,1.52947-.71422,1.82808-.48708.32477-1.34913.10403-2.04772.10415-12.91106.00214-25.82213.00174-38.73319.00188-.82069,0-1.6414,0-2.67705,0,.30034-.42817.45197-.86026.75551-1.04273,2.35018-1.41276,3.2565-3.649,3.55673-6.18434.22398-1.89171.39117-3.80256.3963-5.70538.03829-14.18629.06887-28.37289-.00182-42.55889-.01205-2.41214-.365-4.85388-.85606-7.22139-.32612-1.57228-1.11767-3.06127-2.71949-3.90647-.38274-.20195-.61928-.67758-1.12966-1.26522.87069-.126,1.43648-.27924,2.0023-.2792,10.77549.00078,21.551.01982,32.32649.03444,1.38894.00188,2.77785.00026,4.28384.00026v11.95407c-.52504-.26909-1.12528-.45051-1.5622-.82175-2.29989-1.95426-4.95669-3.01535-7.96073-3.03679-3.77369-.02693-7.54857.08307-11.32257.15328-.4493.00835-.96196.02739-1.32632.24143-.37915.22275-.8719.68692-.87341,1.04734-.02307,5.56192.02637,11.12413.05751,16.68629.00346.61581.11326,1.05933.92213,1.04209,4.85932-.10355,9.71949-.16883,14.57914-.2595.48398-.00903.96639-.10255,1.54398-.16747v11.3948c-.33248-.20059-.6107-.28559-.76145-.47229-1.4596-1.80771-3.55068-2.35808-5.67234-2.49807-3.13547-.20688-6.29083-.1055-9.43704-.16846-1.00833-.02017-1.29549.38166-1.29,1.37973.03716,6.74506.00887,13.49048.00513,20.23578-.00028.48633.01233.97354.04332,1.45881.03791.59403.31097.95258.96657,1.00652,4.7011.38676,9.39493,1.00208,14.10265,1.13291,5.83943.16228,11.12542-1.71689,15.77296-5.2821.37743-.28953.79334-.52949,1.19138-.79247l.45543.19987Z"/>
      <path class="cls-1" d="m244.38784,79.7681c.34645-.51942.65604-.84499.8059-1.23169.73944-1.90805,1.42503-3.83661,2.1507-5.75005,2.52403-6.65531,5.0516-13.3093,7.58799-19.95996,1.70737-4.47701,3.5239-8.91566,5.11055-13.43426.81177-2.31184,1.3476-4.73992,1.78347-7.15549.39745-2.20283-.60585-3.98823-2.31207-5.39027-.21524-.17689-.47065-.32228-.63889-.53565-.41934-.53178-.30821-.94424.40596-.97302.80026-.03225,1.60487.06714,2.40764.06769,3.63796.00251,7.27627.01456,10.91366-.03304.94402-.01235,1.23208.37808,1.00192,1.1899-.33056,1.16603-.67757,2.33331-1.116,3.46231-2.4141,6.21646-4.88572,12.41091-7.28593,18.63261-4.42155,11.46139-8.80776,22.93623-13.20743,34.40593-1.64101,4.27803-3.28597,8.5546-4.91007,12.83896-.26266.69283-.71547.59064-1.16257.32769-1.23144-.72427-2.45709-1.46226-3.64585-2.25301-1.04477-.69499-2.05459-1.44554-3.0483-2.21197-2.95778-2.28135-4.33954-5.57839-5.59494-8.89781-3.24299-8.57505-6.39753-17.18317-9.57932-25.78104-2.73574-7.3926-5.439-14.79717-8.20025-22.18032-1.10165-2.94569-2.5476-5.70909-4.85162-7.94505-.3203-.31083-.58404-.67923-1.05874-1.23879.6133-.14956,1.04462-.34542,1.47617-.34592,4.19708-.00488,8.39429.01091,12.59125.04818,1.40327.01246,1.23959-.18408,1.50497,1.38681.39022,2.30961,1.06292,4.58905,1.80664,6.8183.87774,2.63102,1.98879,5.18422,2.94411,7.7909.88079,2.40344,1.65393,4.84588,2.53685,7.24851,2.05753,5.59881,4.16735,11.17863,6.22768,16.77642,1.63035,4.42955,3.21651,8.87516,4.83044,13.31071.10134.27851.27348.5316.52609,1.01243Z"/>
      <path class="cls-1" d="m388.16347,80.34187c-.27888.91649-.49328,1.85853-.84888,2.74462-1.00676,2.50862-2.08893,4.98732-3.09974,7.49439-.23024.57112-.31964,1.20454-.42508,1.81758-.13917.80948-.51384,1.11845-1.40765,1.11149-5.91181-.04601-11.82416-.02385-17.73632-.0238-7.24154.00006-14.48305.00023-21.7246.00035-.89258.00001-1.78516,0-2.95219,0,.34342-.43267.48752-.77316.74256-.91126,2.98546-1.61647,3.72541-4.43719,4.02564-7.45587.15094-1.5178.16157-3.05348.16368-4.58117.01976-14.28829.03734-28.57661.02127-42.86489-.00323-2.85074-.16919-5.70971-1.44545-8.33961-.38412-.79161-1.04418-1.44845-1.55469-2.18293-.33691-.48472-.63243-.99785-.94648-1.49825.5446-.09311,1.08845-.26179,1.63391-.2671,3.63711-.03546,7.27463-.02941,10.91189-.05068,1.88817-.01104,3.77623-.06758,5.66414-.05914.29672.00133.77486.18059.84081.38312.07648.23496-.12282.72861-.35103.86571-2.93999,1.76622-3.49114,4.63632-3.55268,7.67185-.14076,6.94779-.2502,13.89684-.29009,20.84586-.05249,9.14267-.01884,18.28578-.03832,27.42868-.00497,2.33548-.03486,2.37336,2.38383,2.49829,4.67711.24157,9.35543.5685,14.03568.61407,5.14384.05007,9.64057-1.98405,13.81359-4.82924.52483-.35783,1.16803-.54416,1.7564-.80995.12659.13263.2532.26526.37979.39789Z"/>
      <path class="cls-1" d="m446.0421,80.27401c-.11764.56214-.16239,1.15174-.36467,1.682-1.38599,3.63329-2.81663,7.24979-4.20134,10.88356-.21463.56329-.53475.69148-1.09913.69049-13.64494-.024-27.28991-.03041-40.93485-.03994-.41278-.00029-.82556-.00003-1.48605-.00003.28555-.36251.39748-.61842.5935-.73656,3.28584-1.98051,4.15164-5.15388,4.28535-8.65423.07159-1.8745.00441-3.75411.00556-5.63141.00861-13.94243.06187-27.8851-.01651-41.82704-.01235-2.19246-.40822-4.44348-1.03301-6.54834-.35575-1.19844-1.56035-2.1377-2.32806-3.23153-.2563-.36513-.34304-.84779-.50725-1.27673.34388-.11305.68751-.3235,1.03173-.3245,4.96492-.01439,9.92999-.01145,14.89488.01524,1.02804.00553,2.05546.12442,3.08319.19107.04575.09743.09147.19486.13723.2923-.31284.37333-.55067.90438-.95153,1.09274-1.76222.82809-2.40449,2.50743-2.72761,4.09427-.48849,2.39905-.66688,4.89442-.67718,7.3501-.06262,14.91548-.04003,29.83131-.04626,44.74702-.00077,1.80306.01115,1.7984,1.76317,1.89714,4.08203.23006,8.16257.48584,12.24447.71796,6.00441.34146,11.36301-1.43274,16.22254-4.87662.52835-.37445,1.18479-.57044,1.78183-.84921l.33002.34223Z"/>
      <path d="m466.18914,58.44753c.37661-2.17617.86518-4.34044,1.10108-6.53156.28516-2.64893,1.34298-4.98043,2.53111-7.30089,1.65895-3.24003,4.05678-5.83941,6.96009-7.98791,1.24897-.92419,2.52649-1.89222,3.94032-2.49409,1.86636-.79455,3.84774-1.39835,5.83692-1.81372,2.88209-.60184,5.81775-.62493,8.76401-.32759,3.93242.39687,7.39837,1.89312,10.61453,4.09951,5.10466,3.50205,8.19645,8.43406,10.16236,14.14147,1.27373,3.69788,2.0065,7.51043,1.86128,11.44091-.112,3.03163-.93602,5.91657-1.75702,8.83089-1.43223,5.08441-4.6429,8.8009-8.69373,11.91098-1.91956,1.47378-4.09031,2.4873-6.43836,3.30179-3.64854,1.26558-7.31764,1.70588-11.0767,1.25595-5.03371-.60248-9.49822-2.5579-13.34237-5.93997-3.17228-2.79097-5.71297-6.07811-7.33917-9.88748-1.70683-3.99831-3.10425-8.17463-2.81084-12.67248-.10452-.0086-.20899-.01721-.31351-.02582Z"/>
      <path d="m193.03075,61.41405c-.02596,1.95231-.34078,4.34598-.93067,6.7777-1.30163,5.36579-4.02682,9.74826-8.16403,13.34144-2.29311,1.99157-4.92324,3.27324-7.82019,4.24714-4.24677,1.4277-8.53322,1.81817-12.86169.95277-4.84303-.96829-9.04414-3.24635-12.55502-6.79701-6.06714-6.13589-9.00739-13.54573-9.07282-22.04955-.02186-2.84214.39891-5.68354,1.39155-8.46881,1.0976-3.07979,2.42195-5.96927,4.4508-8.52525,2.30353-2.90198,5.0776-5.2687,8.52257-6.71044,2.81669-1.1788,5.68111-2.31015,8.83088-2.24141,2.4751.05403,5.01239-.19251,7.41139.26612,4.95527.94731,9.19489,3.40909,12.62209,7.1272,1.26899,1.37671,2.45794,2.83717,3.56787,4.34351.62226.84452,1.0779,1.83194,1.48887,2.80493,2.19979,5.20803,3.05862,9.26768,3.11838,14.93164Z"/>
    </g>
  </g>
</svg>